<svg xmlns="http://www.w3.org/2000/svg" viewBox="0 0 240 240" width="600" height="600">

  <metadata>
    <title>Arch Linux</title>
    <output>true</output>
    <extra-format>PNG</extra-format>
  </metadata>

  <style>
    :root {
      --arch-blue: #1793d1;
    }
  </style>

  <defs>
    <linearGradient id="backgroundSilverGradient" x1="0%" y1="0%" x2="100%" y2="100%">
      <stop offset="0%" stop-color="#f7f8fa" />
      <stop offset="45%" stop-color="#d5d9de" />
      <stop offset="100%" stop-color="#9ba3ab" />
    </linearGradient>
  </defs>

  <path
    d="M 120,18.35 C 152.64,88.16 186.16,155.8 220.38,221.65 c -40.78,-19.44 -83.36,-38.28 -93.42,-39.01 1.2,-22.22 2.81,-35.17 -6.96,-35.05 -10.44,0.13 -6.82,17.33 -6.96,34.45 C 74.79,194.26 80.43,191.76 19.61,221.65 54.55,153.88 88.97,86.12 120,18.35 Z"
    style="fill:url(#backgroundSilverGradient)" />
  <path
    d="M 119.85,37.59 c -7.4,18.14 -11.86,30 -20.09,47.59 5.05,5.35 11.25,11.59 21.31,18.63 C 110.25,99.35 102.87,94.88 97.35,90.24 86.81,112.23 70.3,143.56 36.79,203.77 63.13,188.57 83.54,179.19 102.57,175.62 101.75,172.1 101.29,168.3 101.32,164.34 l 0.03,-0.84 c 0.42,-16.87 9.2,-29.85 19.59,-28.97 10.4,0.88 18.48,15.28 18.06,32.16 -0.08,3.18 -0.44,6.23 -1.06,9.06 18.82,3.68 39.02,13.03 65,28.03 -5.12,-9.43 -9.7,-17.93 -14.06,-26.03 -6.88,-5.33 -14.05,-12.27 -28.69,-19.78 10.06,2.61 17.26,5.63 22.88,9 C 138.67,84.3 135.08,73.31 119.85,37.59 z"
    style="fill:var(--arch-blue)" />

</svg>