<?xml version="1.0" encoding="UTF-8" standalone="no"?>
<svg
   version="1.0"
   width="200"
   height="200"
   viewBox="0 0 240 240"
   id="svg4"
   sodipodi:docname="archlinux.svg"
   inkscape:version="1.4.3 (0d15f75, 2025-12-25)"
   xmlns:inkscape="http://www.inkscape.org/namespaces/inkscape"
   xmlns:sodipodi="http://sodipodi.sourceforge.net/DTD/sodipodi-0.dtd"
   xmlns="http://www.w3.org/2000/svg"
   xmlns:svg="http://www.w3.org/2000/svg">
  <sodipodi:namedview
     id="namedview4"
     pagecolor="#ffffff"
     bordercolor="#000000"
     borderopacity="0.25"
     inkscape:showpageshadow="2"
     inkscape:pageopacity="0.0"
     inkscape:pagecheckerboard="0"
     inkscape:deskcolor="#d1d1d1"
     inkscape:zoom="4.04"
     inkscape:cx="99.876238"
     inkscape:cy="100"
     inkscape:window-width="1920"
     inkscape:window-height="1010"
     inkscape:window-x="-6"
     inkscape:window-y="-6"
     inkscape:window-maximized="1"
     inkscape:current-layer="svg4" />
  <defs
     id="defs3">
    <linearGradient
       id="silverGradient"
       x1="21.196079"
       y1="7.5032746"
       x2="193.7714"
       y2="180.07859"
       gradientTransform="matrix(1.1633812,0,0,1.1780765,-24.08605,-9.4532928)"
       gradientUnits="userSpaceOnUse">
      <stop
         offset="0%"
         stop-color="#f7f8fa"
         id="stop1" />
      <stop
         offset="45%"
         stop-color="#d5d9de"
         id="stop2" />
      <stop
         offset="100%"
         stop-color="#9ba3ab"
         id="stop3" />
    </linearGradient>
  </defs>
  <g
     transform="translate(20 20)"
     id="g4">
    <path
       d="M 100.95851,-0.61386133 C 133.60231,69.200165 167.11636,136.83856 201.34396,202.69308 c -40.78483,-19.43795 -83.36298,-38.28422 -93.42499,-39.0053 1.19902,-22.21622 2.81243,-35.17036 -6.96046,-35.04897 -10.441453,0.1297 -6.815951,17.33264 -6.960459,34.45492 C 55.7509,175.30179 61.385572,172.79793 0.57306927,202.69308 35.507933,134.9241 69.932365,67.155119 100.95851,-0.61386133 Z"
       style="fill:url(#silverGradient);stroke:url(#silverGradient);stroke-width:6;stroke-linejoin:round;paint-order:stroke fill"
       id="path3"
       sodipodi:nodetypes="cccsccc" />
    <path
       d="m 100.81,18.63 c -7.4,18.14 -11.86,30 -20.09,47.59 5.05,5.35 11.25,11.59 21.31,18.63 C 91.21,80.39 83.83,75.92 78.31,71.28 67.77,93.27 51.26,124.6 17.75,184.81 44.09,169.61 64.5,160.23 83.53,156.66 82.71,153.14 82.25,149.34 82.28,145.38 l 0.03,-0.84 c 0.42,-16.87 9.2,-29.85 19.59,-28.97 10.4,0.88 18.48,15.28 18.06,32.16 -0.08,3.18 -0.44,6.23 -1.06,9.06 18.82,3.68 39.02,13.03 65,28.03 -5.12,-9.43 -9.7,-17.93 -14.06,-26.03 -6.88,-5.33 -14.05,-12.27 -28.69,-19.78 10.06,2.61 17.26,5.63 22.88,9 C 119.63,65.34 116.04,54.35 100.81,18.63 z"
       style="fill:#1793d1"
       id="path4" />
  </g>
</svg>
