<?xml version="1.0" encoding="UTF-8" standalone="no"?>
<svg xmlns="http://www.w3.org/2000/svg" viewBox="0 0 600 600" width="600" height="600">

  <metadata>
    <title>Arch Linux</title>
    <output>true</output>
    <extra-format>PNG</extra-format>
  </metadata>

  <style>
    :root {
      --arch-blue: #1793d1;
    }
  </style>

  <defs>
    <linearGradient id="backgroundSilverGradient" x1="0%" y1="0%" x2="100%" y2="100%">
      <stop offset="0%" stop-color="#f7f8fa" />
      <stop offset="45%" stop-color="#d5d9de" />
      <stop offset="100%" stop-color="#9ba3ab" />
    </linearGradient>
  </defs>

  <path
    d="m 315.41555,83.084865 207.29655,418.00536 a 17.467218,17.467218 132.68972 0 1 -22.12325,23.98335 l -168.978375,-67.4398 c -6.412275,-2.55915 -11.31595,-10.2247 -11.207075,-17.1276 0.34215,-21.694775 -0.6712,-65.063 -13.62995,-75.971725 -3.055625,-2.57225 -10.471225,-2.47855 -13.50975,0.1215 -13.1135,11.221025 -14.02725,55.1366 -13.6573,76.518275 0.113,6.53385 -4.5272,13.7897 -10.5973,16.2123 l -170.48651,68.0417 a 17.101262,17.101262 47.31028 0 1 -21.659733,-23.480875 L 284.58445,83.084865 a 17.207068,17.207068 0 0 1 30.8311,0 z"
    style="fill:url(#backgroundSilverGradient)" />
  <path
    d="M 300,94 246.058415,211.279208 300,260 240.033415,223.929208 92,509.425 256,440 v -40 c 0,0,0.8696,-64.208425 44,-64 43.1304,0.2085 44,64 44,64 v 40 L 508,509.45 474.300325,444.63755 400,395 l 61.8174,23.058825 z"
    style="fill:var(--arch-blue)" />
</svg>
