<svg xmlns="http://www.w3.org/2000/svg" viewBox="0 0 600 600" width="600" height="600">

  <metadata>
    <title>Arch Linux</title>
    <output>true</output>
    <extra-format>PNG</extra-format>
  </metadata>

  <style>
    :root {
      --arch-blue: #1793d1;
    }
  </style>

  <defs>
    <linearGradient id="backgroundSilverGradient" x1="0%" y1="0%" x2="100%" y2="100%">
      <stop offset="0%" stop-color="#f7f8fa" />
      <stop offset="45%" stop-color="#d5d9de" />
      <stop offset="100%" stop-color="#9ba3ab" />
    </linearGradient>
  </defs>

  <path
    d="m 315,83 209,419 c 7.15,14.34 -7.12,29.94 -22,24 L 331,458 c -6.41,-2.56 -11.11,-11.1 -11,-18 0.34,-21.69 -1.04,-64.09 -14,-75 -3.06,-2.57 -8.96,-2.6 -12,0 -13.11,11.22 -14.37,53.62 -14,75 0.11,6.53 -4.93,15.58 -11,18 L 98,526 C 83.42,531.8 69.03,516.06 76,502 L 285,83 c 6.32,-12.75 23.68,-12.75 30,0 z"
    style="fill:url(#backgroundSilverGradient)" />
  <path
    d="m 300,94 -54,118 54,48 -60,-36 -148,285 164,-69 v -40 c 0,0 0.87,-64.21 44,-64 43.13,0.21 44,64 44,64 v 40 l 164,69 -34,-64 -74,-50 62,23 z"
    style="fill:var(--arch-blue)" />
</svg>
