<?xml version="1.0" encoding="UTF-8" standalone="no"?>
<svg xmlns="http://www.w3.org/2000/svg" viewBox="0 0 240 240" width="600" height="600">

  <metadata>
    <title>Arch Linux</title>
    <output>true</output>
    <extra-format>PNG</extra-format>
  </metadata>

  <style>
    :root {
      --arch-blue: #1793d1;
    }
  </style>

  <defs>
    <linearGradient id="backgroundSilverGradient" x1="0%" y1="0%" x2="100%" y2="100%">
      <stop offset="0%" stop-color="#f7f8fa" />
      <stop offset="45%" stop-color="#d5d9de" />
      <stop offset="100%" stop-color="#9ba3ab" />
    </linearGradient>
  </defs>

  <path
    d="m 126.16622,33.233946 82.91862,167.202144 a 6.9868872,6.9868872 132.68972 0 1 -8.8493,9.59334 l -67.59135,-26.97592 c -2.56491,-1.02366 -4.52638,-4.08988 -4.48283,-6.85104 0.13686,-8.67791 -0.26848,-26.0252 -5.45198,-30.38869 -1.22225,-1.0289 -4.18849,-0.99142 -5.4039,0.0486 -5.2454,4.48841 -5.6109,22.05464 -5.46292,30.60731 0.0452,2.61354 -1.81088,5.51588 -4.23892,6.48492 l -68.194604,27.21668 a 6.8405046,6.8405046 47.31028 0 1 -8.663893,-9.39235 L 113.83378,33.233946 a 6.8828272,6.8828272 0 0 1 12.33244,0 z"
    style="fill:url(#backgroundSilverGradient)" />
  <path
    d="M 120,37.6 98.423366,84.511683 120,104 96.013366,89.571683 36.8,203.77 102.4,176 v -16 c 0,0 0.34784,-25.68337 17.6,-25.6 17.25216,0.0834 17.6,25.6 17.6,25.6 v 16 L 203.2,203.78 189.72013,177.85502 160,158 l 24.72696,9.22353 z"
    style="fill:var(--arch-blue)" />
</svg>
