<?xml version="1.0" encoding="UTF-8" standalone="no"?>
<svg xmlns="http://www.w3.org/2000/svg" viewBox="0 0 600 600" width="600" height="600">

  <metadata>
    <title>Arch Linux</title>
    <output>true</output>
    <extra-format>PNG</extra-format>
  </metadata>

  <style>
    :root {
      --arch-blue: #1793d1;
    }
  </style>

  <defs>
    <linearGradient id="backgroundSilverGradient" x1="0%" y1="0%" x2="100%" y2="100%">
      <stop offset="0%" stop-color="#f7f8fa" />
      <stop offset="45%" stop-color="#d5d9de" />
      <stop offset="100%" stop-color="#9ba3ab" />
    </linearGradient>
  </defs>

  <path
    d="m 315,83 209,419 c 7.15366,14.34155 -7.115,29.94067 -22,24 L 331,458 c -6.41227,-2.55915 -11.10888,-11.09709 -11,-18 0.34215,-21.69477 -1.04125,-64.09128 -14,-75 -3.05563,-2.57225 -8.96147,-2.60003 -12,0 -13.11349,11.22105 -14.36995,53.61832 -14,75 0.113,6.53384 -4.9299,15.57741 -11,18 L 98,526 C 83.419628,531.79804 69.028757,516.05725 76,502 L 285,83 c 6.32277,-12.7496 23.67723,-12.7496 30,0 z"
    style="fill:url(#backgroundSilverGradient)" />
  <path
    d="m 300,94 -54,118 54,48 -60,-36 -148,285 164,-69 v -40 c 0,0 0.8696,-64.20843 44,-64 43.1304,0.2085 44,64 44,64 v 40 l 164,69 -34,-64 -74,-50 62,23 z"
    style="fill:var(--arch-blue)" />
</svg>
