<svg xmlns="http://www.w3.org/2000/svg" viewBox="0 0 529 450" width="529" height="450">
  <defs>
    <linearGradient
      x1="0"
      y1="0"
      x2="1"
      y2="0"
      gradientUnits="userSpaceOnUse"
      gradientTransform="matrix(136.77571,0,0,-136.77571,127.40062,122.62276)"
      spreadMethod="pad"
      id="linearGradient380">
      <stop
        style="stop-opacity:1;stop-color:#ffae02"
        offset="0"
        id="stop372" />
      <stop
        style="stop-opacity:1;stop-color:#ff972a"
        offset="0.527933"
        id="stop374" />
      <stop
        style="stop-opacity:1;stop-color:#fe7e57"
        offset="0.999999"
        id="stop376" />
      <stop
        style="stop-opacity:1;stop-color:#fe7e57"
        offset="1"
        id="stop378" />
    </linearGradient>
  </defs>
  <g
    id="g360">
    <g
      id="g362"
      clip-path="url(#clipPath366)">
      <g
        id="g368">
        <g
          id="g370">
          <path
            d="M 183.571995,274.957341 C 176.015996,274.957341 169.866662,280.436008 169.866662,287.169341 C 169.866662,293.904007 176.015996,299.38134 183.571995,299.38134 H 338.530658 C 346.086658,299.38134 352.234658,293.904007 352.234658,287.169341 C 352.234658,280.436008 346.086658,274.957341 338.530658,274.957341 Z"
            style="fill:url(#linearGradient380);stroke:none"
            id="path382" />
        </g>
      </g>
    </g>
  </g>
  <g
    id="g384">
    <g
      id="g386"
      clip-path="url(#clipPath390)">
      <g
        id="g392">
        <path
          d="M 371.964124,204.865743 C 371.964124,228.949742 362.582791,245.732408 344.092125,253.109742 C 336.320125,256.203075 327.013458,257.787075 316.418792,257.787075 H 283.47346 C 276.61746,257.787075 271.048127,252.217742 271.048127,245.360408 C 271.048127,241.920409 272.43346,238.825742 274.68546,236.573742 C 276.938793,234.321742 280.032126,232.935075 283.47346,232.935075 H 304.661459 C 337.186792,232.935075 344.562791,226.920409 344.562791,206.772409 C 344.562791,181.697743 334.860125,175.929744 314.265459,175.929744 H 207.829461 C 186.913462,175.929744 177.581462,181.845743 177.581462,206.772409 C 177.581462,226.944409 185.378795,232.935075 217.458795,232.935075 H 238.720127 C 245.601461,232.935075 251.146794,238.504409 251.146794,245.360408 C 251.146794,248.801742 249.760127,251.896408 247.508127,254.148408 C 245.280127,256.400408 242.161461,257.787075 238.720127,257.787075 H 205.700128 C 195.081462,257.787075 185.774795,256.203075 178.026796,253.109742 C 159.536129,245.732408 150.15613,228.949742 150.15613,204.865743 C 150.15613,168.553744 170.674796,149.371078 209.537461,149.371078 H 312.557459 C 351.418791,149.371078 371.964124,168.553744 371.964124,204.865743"
          style="fill:#2e2e2e;fill-opacity:1;fill-rule:nonzero;stroke:none"
          id="path394" />
      </g>
    </g>
  </g>
</svg>