<svg xmlns="http://www.w3.org/2000/svg" viewBox="0 0 600 600" width="600" height="600">
  <defs>
    <linearGradient
      x1="0"
      y1="0"
      x2="1"
      y2="0"
      gradientUnits="userSpaceOnUse"
      gradientTransform="matrix(136.77571,0,0,-136.77571,127.40062,122.62276)"
      spreadMethod="pad"
      id="linearGradient380">
      <stop
        style="stop-opacity:1;stop-color:#ffae02"
        offset="0"
        id="stop372" />
      <stop
        style="stop-opacity:1;stop-color:#ff972a"
        offset="0.527933"
        id="stop374" />
      <stop
        style="stop-opacity:1;stop-color:#fe7e57"
        offset="0.999999"
        id="stop376" />
      <stop
        style="stop-opacity:1;stop-color:#fe7e57"
        offset="1"
        id="stop378" />
    </linearGradient>
  </defs>
  <path
    d="M 144.50565,392 C 129.34131,392 117,402.76712 117,416.00001 117,429.23552 129.34131,440 144.50565,440 H 455.49701 C 470.66138,440 483,429.23552 483,416.00001 483,402.76712 470.66138,392 455.49701,392 Z"
    fill="url(#linearGradient380)" />
  <path
    d="m 522,250.56346 c 0,47.98317 -18.7789,81.41973 -55.79226,96.11778 C 450.65029,352.84415 432.02084,356 410.81317,356 h -65.94771 c -13.72387,0 -24.87217,-11.09591 -24.87217,-24.75797 0,-6.85359 2.77308,-13.01916 7.28096,-17.50589 4.51057,-4.48673 10.70258,-7.24942 17.59121,-7.24942 h 42.41269 c 65.10698,0 79.87173,-11.98317 79.87173,-52.12456 0,-49.9569 -19.42211,-61.44865 -60.6471,-61.44865 H 193.44651 c -41.86822,0 -60.54837,11.78661 -60.54837,61.44865 0,40.18921 15.60818,52.12456 79.82371,52.12456 h 42.55948 c 13.77458,0 24.87483,11.09594 24.87483,24.75531 0,6.85626 -2.77574,13.02184 -7.28364,17.50857 C 268.41267,353.23731 262.16995,356 255.28133,356 H 189.18416 C 167.92844,356 149.299,352.84415 133.78958,346.68124 96.77625,331.98319 78,298.54663 78,250.56346 78,178.21813 119.07285,140 196.86547,140 H 403.08382 C 480.87376,140 522,178.21813 522,250.56346"
    fill="#2e2e2e" />
</svg>
