<svg xmlns="http://www.w3.org/2000/svg" viewBox="0 0 529 450" width="529" height="450">
  <defs>
    <linearGradient
       x1="0"
       y1="0"
       x2="1"
       y2="0"
       gradientUnits="userSpaceOnUse"
       gradientTransform="matrix(136.77571,0,0,-136.77571,127.40062,122.62276)"
       spreadMethod="pad"
       id="linearGradient380">
      <stop
         style="stop-opacity:1;stop-color:#ffae02"
         offset="0"
         id="stop372" />
      <stop
         style="stop-opacity:1;stop-color:#ff972a"
         offset="0.527933"
         id="stop374" />
      <stop
         style="stop-opacity:1;stop-color:#fe7e57"
         offset="0.999999"
         id="stop376" />
      <stop
         style="stop-opacity:1;stop-color:#fe7e57"
         offset="1"
         id="stop378" />
    </linearGradient>
  </defs>
  <g
     id="g358"
     transform="matrix(1.3333333,0,0,-1.3333333,0,450.66667)">
    <g
       id="g360">
      <g
         id="g362"
         clip-path="url(#clipPath366)">
        <g
           id="g368">
          <g
             id="g370">
            <path
               d="m 137.679,131.782 c -5.667,0 -10.279,-4.109 -10.279,-9.159 v 0 c 0,-5.051 4.612,-9.159 10.279,-9.159 v 0 h 116.219 c 5.667,0 10.278,4.108 10.278,9.159 v 0 c 0,5.05 -4.611,9.159 -10.278,9.159 v 0 z"
               style="fill:url(#linearGradient380);stroke:none"
               id="path382" />
          </g>
        </g>
      </g>
    </g>
    <g
       id="g384">
      <g
         id="g386"
         clip-path="url(#clipPath390)">
        <g
           id="g392"
           transform="translate(278.9731,184.3507)">
          <path
             d="m 0,0 c 0,-18.063 -7.036,-30.65 -20.904,-36.183 -5.829,-2.32 -12.809,-3.508 -20.755,-3.508 h -24.709 c -5.142,0 -9.319,4.177 -9.319,9.32 0,2.58 1.039,4.901 2.728,6.59 1.69,1.689 4.01,2.729 6.591,2.729 h 15.891 c 24.394,0 29.926,4.511 29.926,19.622 0,18.806 -7.277,23.132 -22.723,23.132 h -79.827 c -15.687,0 -22.686,-4.437 -22.686,-23.132 0,-15.129 5.848,-19.622 29.908,-19.622 h 15.946 c 5.161,0 9.32,-4.177 9.32,-9.319 0,-2.581 -1.04,-4.902 -2.729,-6.591 -1.671,-1.689 -4.01,-2.729 -6.591,-2.729 h -24.765 c -7.964,0 -14.944,1.188 -20.755,3.508 -13.868,5.533 -20.903,18.12 -20.903,36.183 0,27.234 15.389,41.621 44.536,41.621 h 77.265 C -15.409,41.621 0,27.234 0,0"
             style="fill:#2e2e2e;fill-opacity:1;fill-rule:nonzero;stroke:none"
             id="path394" />
        </g>
      </g>
    </g>
  </g>
</svg>
