<?xml-stylesheet href="./standard-cube-colors.css" type="text/css"?>

<svg xmlns="http://www.w3.org/2000/svg" viewBox="0 0 51 51" width="500" height="500">

  <metadata>
    <title>5x5 Cube Sticker</title>
    <output>true</output>
    <extra-format>PNG</extra-format>
  </metadata>

  <rect width="51" height="51" rx="2.5" ry="2.5" fill="url(../common/common-defs.svg#backgroundSilverGradient)"/>
  <rect x="1" y="1" width="9" height="9" rx="1.5" ry="1.5" fill="var(--blue)"/>
  <rect x="11" y="1" width="9" height="9" rx="1.5" ry="1.5" fill="var(--white)"/>
  <rect x="21" y="1" width="9" height="9" rx="1.5" ry="1.5" fill="var(--red)"/>
  <rect x="31" y="1" width="9" height="9" rx="1.5" ry="1.5" fill="var(--orange)"/>
  <rect x="41" y="1" width="9" height="9" rx="1.5" ry="1.5" fill="var(--yellow)"/>
  <rect x="1" y="11" width="9" height="9" rx="1.5" ry="1.5" fill="var(--white)"/>
  <rect x="11" y="11" width="9" height="9" rx="1.5" ry="1.5" fill="var(--red)"/>
  <rect x="21" y="11" width="9" height="9" rx="1.5" ry="1.5" fill="var(--orange)"/>
  <rect x="31" y="11" width="9" height="9" rx="1.5" ry="1.5" fill="var(--yellow)"/>
  <rect x="41" y="11" width="9" height="9" rx="1.5" ry="1.5" fill="var(--green)"/>
  <rect x="1" y="21" width="9" height="9" rx="1.5" ry="1.5" fill="var(--red)"/>
  <rect x="11" y="21" width="9" height="9" rx="1.5" ry="1.5" fill="var(--orange)"/>
  <rect x="21" y="21" width="9" height="9" rx="1.5" ry="1.5" fill="var(--white)"/>
  <image x="22" y="22" width="7" height="7" href="../logo/GAN.svg" />
  <rect x="31" y="21" width="9" height="9" rx="1.5" ry="1.5" fill="var(--green)"/>
  <rect x="41" y="21" width="9" height="9" rx="1.5" ry="1.5" fill="var(--blue)"/>
  <rect x="1" y="31" width="9" height="9" rx="1.5" ry="1.5" fill="var(--orange)"/>
  <rect x="11" y="31" width="9" height="9" rx="1.5" ry="1.5" fill="var(--yellow)"/>
  <rect x="21" y="31" width="9" height="9" rx="1.5" ry="1.5" fill="var(--green)"/>
  <rect x="31" y="31" width="9" height="9" rx="1.5" ry="1.5" fill="var(--blue)"/>
  <rect x="41" y="31" width="9" height="9" rx="1.5" ry="1.5" fill="var(--white)"/>
  <rect x="1" y="41" width="9" height="9" rx="1.5" ry="1.5" fill="var(--yellow)"/>
  <rect x="11" y="41" width="9" height="9" rx="1.5" ry="1.5" fill="var(--green)"/>
  <rect x="21" y="41" width="9" height="9" rx="1.5" ry="1.5" fill="var(--blue)"/>
  <rect x="31" y="41" width="9" height="9" rx="1.5" ry="1.5" fill="var(--white)"/>
  <rect x="41" y="41" width="9" height="9" rx="1.5" ry="1.5" fill="var(--red)"/>

</svg>
