<?xml-stylesheet href="./standard-cube-colors.css" type="text/css"?>

<svg xmlns="http://www.w3.org/2000/svg" viewBox="0 0 31 31" width="400" height="400">

  <metadata>
    <title>Mirror Cube Sticker</title>
    <output>true</output>
    <extra-format>PNG</extra-format>
  </metadata>

  <defs>
    <linearGradient id="mirror-gradient" x1="1" y1="1" x2="30" y2="30" gradientUnits="userSpaceOnUse">
      <stop offset="0%" stop-color="#7c50c1"/>
      <stop offset="100%" stop-color="#3450bd"/>
    </linearGradient>
  </defs>

  <rect width="31" height="31" rx="2.5" ry="2.5" fill="url(../common/common-defs.svg#backgroundSilverGradient)"/>
  <rect x="1" y="1" width="6" height="8" rx="1.2" ry="1.2" fill="url(#mirror-gradient)"/>
  <rect x="8" y="1" width="9" height="8" rx="1.2" ry="1.2" fill="url(#mirror-gradient)"/>
  <rect x="18" y="1" width="12" height="8" rx="1.2" ry="1.2" fill="url(#mirror-gradient)"/>
  <rect x="1" y="10" width="6" height="9" rx="1.2" ry="1.2" fill="url(#mirror-gradient)"/>
  <rect x="8" y="10" width="9" height="9" rx="1.2" ry="1.2" fill="url(#mirror-gradient)"/>
  <svg x="9" y="11" width="7" height="7" viewBox="0 0 900 1024" preserveAspectRatio="xMidYMid meet">
    <path fill="var(--white)" d="M 450 0 L 870 244 L 760 309 L 450 130 L 254 244 L 450 357 L 506 325 L 366 244 L 450 195 L 702 341 L 450 487 L 30 244 Z"/>
    <path fill="var(--white)" d="M 0 292 L 422 537 L 422 1024 L 310 960 L 310 830 L 112 715 L 112 845 L 0 780 Z M 112 488 L 112 585 L 310 700 L 310 602 Z"/>
    <path fill="var(--white)" d="M 900 292 L 900 780 L 844 812 L 590 666 L 590 960 L 478 1024 L 478 537 L 562 488 L 787 617 L 787 358 Z"/>
  </svg>
  <rect x="18" y="10" width="12" height="9" rx="1.2" ry="1.2" fill="url(#mirror-gradient)"/>
  <rect x="1" y="20" width="6" height="10" rx="1.2" ry="1.2" fill="url(#mirror-gradient)"/>
  <rect x="8" y="20" width="9" height="10" rx="1.2" ry="1.2" fill="url(#mirror-gradient)"/>
  <rect x="18" y="20" width="12" height="10" rx="1.2" ry="1.2" fill="url(#mirror-gradient)"/>

</svg>
