<svg xmlns="http://www.w3.org/2000/svg" viewBox="0 0 36 32" width="320" height="320">
  <defs>
    <linearGradient id="silverGradient" x1="0%" y1="0%" x2="100%" y2="100%">
      <stop offset="0%" stop-color="#f7f8fa" />
      <stop offset="45%" stop-color="#d5d9de" />
      <stop offset="100%" stop-color="#9ba3ab" />
    </linearGradient>
  </defs>
  <style>
    svg {
      --red: #C41E3A;
      --blue: #0051BA;
      --yellow: #FFD500;
      --green: #009E60;
      --frame: #CCCCCC;
      --white: #FFFFFF;
    }
    .red { fill: var(--red); }
    .blue { fill: var(--blue); }
    .yellow { fill: var(--yellow); }
    .green { fill: var(--green); }
    .frame { fill: url(#silverGradient); }
    .white { fill: var(--white); }
  </style>
  <!-- Three-layer recursive probe: side length 9 equilateral triangles.
       Built by extending the successful two-layer construction:
       each adjacent up/down facing edge pair is offset by 1, then an outer frame triangle is added at offset 1. -->

  <!-- Outer frame triangle, rounded radius 1.6 -->
  <path d="M 19.39,3.4 L 33.58,27.98 A 1.6,1.6 0 0 1 32.19,30.38 L 3.81,30.38 A 1.6,1.6 0 0 1 2.42,27.98 L 16.61,3.4 A 1.6,1.6 0 0 1 19.39,3.4 Z" class="frame" />

  <!-- up-pointing small triangles -->
  <!-- U1 -->
  <path d="M 18.69,4.2 L 21.81,9.59 A 0.8,0.8 0 0 1 21.11,10.79 L 14.89,10.79 A 0.8,0.8 0 0 1 14.19,9.59 L 17.31,4.2 A 0.8,0.8 0 0 1 18.69,4.2 Z" class="green" />
  <!-- U2 -->
  <path d="M 13.33,13.49 L 16.44,18.89 A 0.8,0.8 0 0 1 15.75,20.09 L 9.52,20.09 A 0.8,0.8 0 0 1 8.83,18.89 L 11.94,13.49 A 0.8,0.8 0 0 1 13.33,13.49 Z" class="green" />
  <!-- U3 -->
  <path d="M 24.06,13.49 L 27.17,18.89 A 0.8,0.8 0 0 1 26.48,20.09 L 20.25,20.09 A 0.8,0.8 0 0 1 19.56,18.89 L 22.67,13.49 A 0.8,0.8 0 0 1 24.06,13.49 Z" class="green" />
  <!-- U4 -->
  <path d="M 7.96,22.79 L 11.08,28.18 A 0.8,0.8 0 0 1 10.38,29.38 L 4.15,29.38 A 0.8,0.8 0 0 1 3.46,28.18 L 6.58,22.79 A 0.8,0.8 0 0 1 7.96,22.79 Z" class="red" />
  <!-- U5 -->
  <path d="M 18.69,22.79 L 21.81,28.18 A 0.8,0.8 0 0 1 21.11,29.38 L 14.89,29.38 A 0.8,0.8 0 0 1 14.19,28.18 L 17.31,22.79 A 0.8,0.8 0 0 1 18.69,22.79 Z" class="red" />
  <!-- U6 -->
  <path d="M 29.42,22.79 L 32.54,28.18 A 0.8,0.8 0 0 1 31.85,29.38 L 25.62,29.38 A 0.8,0.8 0 0 1 24.92,28.18 L 28.04,22.79 A 0.8,0.8 0 0 1 29.42,22.79 Z" class="red" />

  <!-- down-pointing small triangles -->
  <!-- D1 -->
  <path d="M 14.89,11.79 L 21.11,11.79 A 0.8,0.8 0 0 1 21.81,12.99 L 18.69,18.39 A 0.8,0.8 0 0 1 17.31,18.39 L 14.19,12.99 A 0.8,0.8 0 0 1 14.89,11.79 Z" class="blue" />
  <svg x="16.55" y="13" width="2.9" height="3.3" viewBox="0 0 900 1024" preserveAspectRatio="xMidYMid meet">
    <path class="white" d="M 450 0 L 870 244 L 760 309 L 450 130 L 254 244 L 450 357 L 506 325 L 366 244 L 450 195 L 702 341 L 450 487 L 30 244 Z"/>
    <path class="white" d="M 0 292 L 422 537 L 422 1024 L 310 960 L 310 830 L 112 715 L 112 845 L 0 780 Z M 112 488 L 112 585 L 310 700 L 310 602 Z"/>
    <path class="white" d="M 900 292 L 900 780 L 844 812 L 590 666 L 590 960 L 478 1024 L 478 537 L 562 488 L 787 617 L 787 358 Z"/>
  </svg>
  <!-- D2 -->
  <path d="M 9.52,21.09 L 15.75,21.09 A 0.8,0.8 0 0 1 16.44,22.29 L 13.33,27.68 A 0.8,0.8 0 0 1 11.94,27.68 L 8.83,22.29 A 0.8,0.8 0 0 1 9.52,21.09 Z" class="yellow" />
  <!-- D3 -->
  <path d="M 20.25,21.09 L 26.48,21.09 A 0.8,0.8 0 0 1 27.17,22.29 L 24.06,27.68 A 0.8,0.8 0 0 1 22.67,27.68 L 19.56,22.29 A 0.8,0.8 0 0 1 20.25,21.09 Z" class="yellow" />
</svg>