<?xml-stylesheet href="./standard-cube-colors.css" type="text/css"?>

<svg xmlns="http://www.w3.org/2000/svg" viewBox="0 0 32 32" width="400" height="400">

  <metadata>
    <title>Skewb Sticker</title>
    <output>true</output>
    <extra-format>PNG</extra-format>
  </metadata>

  <!-- Skewb face: 4 corner triangles + center diamond -->
  <rect width="32" height="32" rx="2" ry="2" fill="url(../common/common-defs.svg#backgroundSilverGradient)"/>

  <!-- colored pieces: rounded corners with radius 2 (fill-only, no stroke) -->
  <path d="M 3.92,1.92 L 13.04,1.92 Q 15.04,1.92 13.63,3.33 L 3.33,13.63 Q 1.92,15.04 1.92,13.04 L 1.92,3.92 Q 1.92,1.92 3.92,1.92 Z" fill="var(--blue)"/>
  <path d="M 28.08,1.92 L 18.96,1.92 Q 16.96,1.92 18.37,3.33 L 28.67,13.63 Q 30.08,15.04 30.08,13.04 L 30.08,3.92 Q 30.08,1.92 28.08,1.92 Z" fill="var(--red)"/>
  <path d="M 30.08,18.96 L 30.08,28.08 Q 30.08,30.08 28.08,30.08 L 18.96,30.08 Q 16.96,30.08 18.37,28.67 L 28.67,18.37 Q 30.08,16.96 30.08,18.96 Z" fill="var(--yellow)"/>
  <path d="M 3.92,30.08 L 13.04,30.08 Q 15.04,30.08 13.63,28.67 L 3.33,18.37 Q 1.92,16.96 1.92,18.96 L 1.92,28.08 Q 1.92,30.08 3.92,30.08 Z" fill="var(--green)"/>
  <path d="M 17.41,5.25 L 26.75,14.59 Q 28.16,16.00 26.75,17.41 L 17.41,26.75 Q 16.00,28.16 14.59,26.75 L 5.25,17.41 Q 3.84,16.00 5.25,14.59 L 14.59,5.25 Q 16.00,3.84 17.41,5.25 Z" fill="var(--white)"/>

  <image x="12" y="12" width="8" height="8" href="../logo/GAN.svg" />
</svg>
