<?xml version="1.0" encoding="utf-8"?>
<svg xmlns="http://www.w3.org/2000/svg" viewBox="0 0 30 30" width="500" height="500">
  <defs>
    <linearGradient id="backgroundSilverGradient" x1="0%" y1="0%" x2="100%" y2="100%">
      <stop offset="0%" stop-color="#f7f8fa" />
      <stop offset="45%" stop-color="#d5d9de" />
      <stop offset="100%" stop-color="#9ba3ab" />
    </linearGradient>
  </defs>
  <path d="M 15.71,1.31 L 27.8,10.1 A 1.2,1.2 0 0 1 28.24,11.44 L 23.62,25.66 A 1.2,1.2 0 0 1 22.47,26.49 L 7.53,26.49 A 1.2,1.2 0 0 1 6.38,25.66 L 1.76,11.44 A 1.2,1.2 0 0 1 2.2,10.1 L 14.29,1.31 A 1.2,1.2 0 0 1 15.71,1.31 Z" fill="url(#backgroundSilverGradient)" />
  <!-- 5 corner quads (apex = inner vertex iv_k, base through outer vertex v_k) -->
  <path d="M 14.53,8.16 L 11.41,5.9 A 0.8,0.8 0 0 1 11.41,4.6 L 14.53,2.34 A 0.8,0.8 0 0 1 15.47,2.34 L 18.59,4.6 A 0.8,0.8 0 0 1 18.59,5.9 L 15.47,8.16 A 0.8,0.8 0 0 1 14.53,8.16 Z" fill="#C41E3A" />
  <path d="M 21.36,12.44 L 22.55,8.77 A 0.8,0.8 0 0 1 23.78,8.37 L 26.9,10.64 A 0.8,0.8 0 0 1 27.19,11.53 L 26,15.2 A 0.8,0.8 0 0 1 24.77,15.6 L 21.65,13.33 A 0.8,0.8 0 0 1 21.36,12.44 Z" fill="#0051BA" />
  <path d="M 19.4,20.25 L 23.25,20.25 A 0.8,0.8 0 0 1 24.02,21.3 L 22.82,24.97 A 0.8,0.8 0 0 1 22.06,25.52 L 18.21,25.52 A 0.8,0.8 0 0 1 17.45,24.47 L 18.64,20.81 A 0.8,0.8 0 0 1 19.4,20.25 Z" fill="#FFD500" />
  <path d="M 11.36,20.81 L 12.55,24.47 A 0.8,0.8 0 0 1 11.79,25.52 L 7.94,25.52 A 0.8,0.8 0 0 1 7.18,24.97 L 5.98,21.3 A 0.8,0.8 0 0 1 6.75,20.25 L 10.6,20.25 A 0.8,0.8 0 0 1 11.36,20.81 Z" fill="#8B2D8B" />
  <path d="M 8.35,13.33 L 5.23,15.6 A 0.8,0.8 0 0 1 4,15.2 L 2.81,11.53 A 0.8,0.8 0 0 1 3.1,10.64 L 6.22,8.37 A 0.8,0.8 0 0 1 7.45,8.77 L 8.64,12.44 A 0.8,0.8 0 0 1 8.35,13.33 Z" fill="#009E60" />
  <!-- 5 thin edge quads (along each inner pentagon edge) -->
  <path d="M 16.57,9.65 L 19.61,11.85 A 0.8,0.8 0 0 0 20.84,11.45 L 22.03,7.78 A 0.8,0.8 0 0 0 21.74,6.89 L 20.63,6.09 A 0.8,0.8 0 0 0 19.69,6.09 L 16.57,8.35 A 0.8,0.8 0 0 0 16.57,9.65 Z" fill="#FF5800" />
  <path d="M 20.58,14.84 L 19.42,18.41 A 0.8,0.8 0 0 0 20.18,19.45 L 24.03,19.45 A 0.8,0.8 0 0 0 24.8,18.9 L 25.22,17.6 A 0.8,0.8 0 0 0 24.93,16.71 L 21.81,14.44 A 0.8,0.8 0 0 0 20.58,14.84 Z" fill="#B0E830" />
  <path d="M 16.88,20.25 L 13.13,20.25 A 0.8,0.8 0 0 0 12.36,21.3 L 13.56,24.97 A 0.8,0.8 0 0 0 14.32,25.52 L 15.68,25.52 A 0.8,0.8 0 0 0 16.44,24.97 L 17.64,21.3 A 0.8,0.8 0 0 0 16.88,20.25 Z" fill="#FF6FA1" />
  <path d="M 10.58,18.41 L 9.42,14.84 A 0.8,0.8 0 0 0 8.19,14.44 L 5.07,16.71 A 0.8,0.8 0 0 0 4.78,17.6 L 5.2,18.9 A 0.8,0.8 0 0 0 5.97,19.45 L 9.82,19.45 A 0.8,0.8 0 0 0 10.58,18.41 Z" fill="#6FB7E8" />
  <path d="M 10.39,11.85 L 13.43,9.65 A 0.8,0.8 0 0 0 13.43,8.35 L 10.31,6.09 A 0.8,0.8 0 0 0 9.37,6.09 L 8.26,6.89 A 0.8,0.8 0 0 0 7.97,7.78 L 9.16,11.45 A 0.8,0.8 0 0 0 10.39,11.85 Z" fill="#E8C39E" />
  <!-- Inner (small) center pentagon -->
  <path d="M 15.47,9.84 L 19.77,12.96 A 0.8,0.8 0 0 1 20.06,13.85 L 18.42,18.9 A 0.8,0.8 0 0 1 17.65,19.45 L 12.35,19.45 A 0.8,0.8 0 0 1 11.58,18.9 L 9.94,13.85 A 0.8,0.8 0 0 1 10.23,12.96 L 14.53,9.84 A 0.8,0.8 0 0 1 15.47,9.84 Z" fill="#FFFFFF" />
  <!-- GAN logo centered in the white center pentagon -->
  <svg x="13.05" y="12.78" width="3.9" height="4.45" viewBox="0 0 900 1024">
    <!-- Path 1: Top shape, letter G -->
    <path fill="#0075cf" d="M 450 0 L 870 244 760 309 450 130 254 244 450 357 506 325 366 244 450 195 702 341 450 487 30 244 Z" />
    <!-- Path 2: Left shape, letter A -->
    <path fill="#0075cf" d="M 0 292 L 422 537 V 1024 L 310 960 V 830 L 112 715 V 845 L 0 780 Z M 112 488 V 585 L 310 700 V 602 Z" />
    <!-- Path 3: Right shape, letter N -->
    <path fill="#0075cf" d="M 900 292 V 780 L 844 812 590 666 V 960 L 478 1024 V 537 L 562 488 787 617 V 358 Z" />
  </svg>
</svg>
