<?xml version="1.0" encoding="utf-8"?>
<svg xmlns="http://www.w3.org/2000/svg" viewBox="0 0 600 600" width="600" height="600">
  <defs>
    <linearGradient id="orange-bar-gradient">
      <stop stop-color="#ffae02" offset="0" />
      <stop stop-color="#fe7e57" offset="1" />
    </linearGradient>
    <linearGradient id="backgroundSilverGradient" x1="0%" y1="0%" x2="100%" y2="100%">
      <stop offset="0%" stop-color="#f7f8fa" />
      <stop offset="45%" stop-color="#d5d9de" />
      <stop offset="100%" stop-color="#9ba3ab" />
    </linearGradient>
  </defs>
  <path d="m 440,100 c 68.69231,0 123.23863,77.83015 122,150 -1.72058,100.2509 -46.40983,96.71404 -52,120 -5.0962,21.2283 32.02326,110 -40,110 H 130 C 58.788112,480 99.250351,391.86097 90,370 81.363887,349.59064 37.488736,338.11093 38,250 38.526426,159.27601 105.34356,100 160,100 Z" fill="url(#backgroundSilverGradient)" />
  <path d="m 144,392 c -15.16434,0 -27,10.76712 -27,24 C 117,429.23552 128.83566,440 144,440 h 312 c 15.16437,0 27,-10.76448 27,-24 C 483,402.76712 471.16437,392 456,392 Z" fill="url(#orange-bar-gradient)" />
  <path d="m 522,250.56346 c 0,47.98317 -18.98664,80.73849 -56,95.43654 -15.55745,6.16291 -34.79233,10 -56,10 h -65 c -13.72387,0 -25,-11.33794 -25,-25 0,-13.6801 11.27402,-27 25,-27 h 45 c 65.10698,0 80,-13.85837 80,-53.99976 C 470,200.04335 445.22499,192 404,192 H 196 c -41.86822,0 -66,8.33796 -66,58 0,40.18921 15.78447,54 80,54 h 45 c 13.77458,0 25,13.34063 25,27 0,13.58237 -11.15564,25 -25,25 h -65 c -21.25572,0 -40.49058,-3.83709 -56,-10 C 96.98667,331.30195 78,297.98317 78,250 78,177.65467 118.20738,140 196,140 h 208 c 77.78994,0 118,37.65467 118,110" fill="#2e2e2e" />
</svg>
